<svg height="166" viewBox="0 0 250 166" width="250" xmlns="http://www.w3.org/2000/svg"><g fill="none" fill-rule="nonzero"><g transform="translate(9)"><circle cx="10.741333" cy="30.082846" fill="#e6e6e6" r="3.703232"/><circle cx="21.851026" cy="30.082846" fill="#e6e6e6" r="3.703232"/><circle cx="32.960718" cy="30.082846" fill="#e6e6e6" r="3.703232"/><circle cx="44.070411" cy="30.082846" fill="#e6e6e6" r="3.703232"/><circle cx="55.180104" cy="30.082846" fill="#e6e6e6" r="3.703232"/><circle cx="66.289796" cy="30.082846" fill="#e6e6e6" r="3.703232"/><circle cx="77.399489" cy="30.082846" fill="#e6e6e6" r="3.703232"/><path d="m85.9569355 34.5925254h-83.77304928c-.83189994-.0009776-1.50604429-.675122-1.5070219-1.5070219v-6.0052769c.00097612-.8319005.67512134-1.5060458 1.5070219-1.5070219h83.77304928c.8318999.0009776 1.5060442.675122 1.5070218 1.5070219v6.0052769c-.0009791.8318993-.6751225 1.5060428-1.5070218 1.5070219zm-83.77304928-8.4165125c-.49915749.0005505-.90421368.4050617-.90421368.9042191v6.0052715c0 .4991564.40505725.9036659.90421368.9042109h83.77304928c.4991559-.000545.9042109-.4050549.9042109-.9042109v-6.0052769c0-.499157-.4050539-.9036686-.9042109-.9042137z" fill="#e6e6e6"/><path d="m20.1118455.86587611c.4779761.00054647.865316.38788639.8658625.86586252v18.76333047c-.0005465.4779761-.3878864.865316-.8658625.8658625h-18.38008514c-.47797612-.0005465-.86531604-.3878864-.86586252-.8658625v-18.76331689c.00054648-.47797612.3878864-.86531604.86586252-.8658761zm0-.86587611h-18.38008514c-.95642034 0-1.73175221.77534546-1.73175221 1.73176579v18.76330331c0 .9564203.77533187 1.7317522 1.73175221 1.7317522h18.38008514c.9564197 0 1.7317522-.7753325 1.7317522-1.7317522v-18.76331689c0-.95641971-.7753325-1.73175221-1.7317522-1.73175221z" fill="#e6e6e6"/><path d="m17.2449494 5.79794534h-12.26305575c-.15530434.0009448-.29922097-.08136238-.37714955-.21570331-.07792857-.13434092-.07792857-.30013136 0-.43447228.07792858-.13434092.22184521-.2166481.37714955-.2157033h12.26305575c.1553043-.0009448.299221.08136238.3771495.2157033.0779286.13434092.0779286.30013136 0 .43447228-.0779285.13434093-.2218452.21664811-.3771495.21570331z" fill="#387ed1"/><path d="m17.2449494 8.86381591h-12.26305575c-.15530434.0009448-.29922097-.08136238-.37714955-.2157033-.07792857-.13434093-.07792857-.30013136 0-.43447229.07792858-.13434092.22184521-.2166481.37714955-.2157033h12.26305575c.1553043-.0009448.299221.08136238.3771495.2157033.0779286.13434093.0779286.30013136 0 .43447229-.0779285.13434092-.2218452.2166481-.3771495.2157033z" fill="#387ed1"/><path d="m17.2449494 11.9294746h-12.26305575c-.15530434.0009448-.29922097-.0813624-.37714955-.2157033-.07792857-.134341-.07792857-.3001314 0-.4344723.07792858-.1343409.22184521-.2166481.37714955-.2157033h12.26305575c.1553043-.0009448.299221.0813624.3771495.2157033.0779286.1343409.0779286.3001313 0 .4344723-.0779285.1343409-.2218452.2166481-.3771495.2157033z" fill="#387ed1"/><path d="m17.2449494 14.9953424h-12.26305575c-.15530434.0009448-.29922097-.0813624-.37714955-.2157033-.07792857-.1343409-.07792857-.3001313 0-.4344723.07792858-.1343409.22184521-.2166481.37714955-.2157033h12.26305575c.1553043-.0009448.299221.0813624.3771495.2157033.0779286.134341.0779286.3001314 0 .4344723-.0779285.1343409-.2218452.2166481-.3771495.2157033z" fill="#387ed1"/><path d="m17.2449494 18.0612075h-12.26305575c-.23910583 0-.43293941-.1938335-.43293941-.4329394 0-.2391058.19383358-.4329394.43293941-.4329394h12.26305575c.2391058 0 .4329394.1938336.4329394.4329394 0 .2391059-.1938336.4329394-.4329394.4329394z" fill="#387ed1"/><path d="m82.887878.86587611c.4779761.00054647.865316.38788639.8658625.86586252v18.76333047c-.0005465.4779761-.3878864.865316-.8658625.8658625h-18.3800851c-.4779761-.0005465-.865316-.3878864-.8658625-.8658625v-18.76331689c.0005465-.47797612.3878864-.86531604.8658625-.8658761zm0-.86587611h-18.3800851c-.9564203 0-1.7317522.77534546-1.7317522 1.73176579v18.76330331c0 .9564203.7753319 1.7317522 1.7317522 1.7317522h18.3800851c.9564203 0 1.7317522-.7753319 1.7317522-1.7317522v-18.76331689c0-.95642034-.7753319-1.73175221-1.7317522-1.73175221z" fill="#e6e6e6"/><g fill="#387ed1"><path d="m80.0209846 5.79794534h-12.2630475c-.1553044.0009448-.299221-.08136238-.3771496-.21570331-.0779286-.13434092-.0779286-.30013136 0-.43447228s.2218452-.2166481.3771496-.2157033h12.2630584c.2380646.001469.4302829.19487041.4302829.43293944s-.1922183.43147044-.4302829.43293945z"/><path d="m80.0209846 8.86381591h-12.2630475c-.1553044.0009448-.299221-.08136238-.3771496-.2157033-.0779286-.13434093-.0779286-.30013136 0-.43447229.0779286-.13434092.2218452-.2166481.3771496-.2157033h12.2630584c.2380646.001469.4302829.19487041.4302829.43293944 0 .23806904-.1922183.43147045-.4302829.43293945z"/><path d="m80.0209846 11.9294746h-12.2630475c-.1553044.0009448-.299221-.0813624-.3771496-.2157033-.0779286-.134341-.0779286-.3001314 0-.4344723s.2218452-.2166481.3771496-.2157033h12.2630584c.2380646.001469.4302829.1948704.4302829.4329394 0 .2380691-.1922183.4314705-.4302829.4329395z"/><path d="m80.0209846 14.9953424h-12.2630475c-.1553044.0009448-.299221-.0813624-.3771496-.2157033s-.0779286-.3001313 0-.4344723c.0779286-.1343409.2218452-.2166481.3771496-.2157033h12.2630584c.2380646.001469.4302829.1948704.4302829.4329395 0 .238069-.1922183.4314704-.4302829.4329394z"/><path d="m80.0209846 18.0612075h-12.2630475c-.2391059 0-.4329395-.1938335-.4329395-.4329394 0-.2391058.1938336-.4329394.4329395-.4329394h12.2630584c.2391058 0 .4329394.1938336.4329394.4329394 0 .2391059-.1938336.4329394-.4329394.4329394z"/><path d="m145.358998 36.943406c.477976.0005464.865316.3878864.865862.8658625v18.7633114c-.000548.4779755-.387887.8653146-.865862.8658626h-18.380085c-.477976-.000548-.865315-.3878871-.865863-.8658626v-18.7632978c.000546-.4779762.387886-.8653161.865863-.8658761zm0-.8658761h-18.380085c-.956421 0-1.731753.775359-1.731753 1.7317793v18.7633115c0 .9564203.775332 1.7317522 1.731753 1.7317522h18.380085c.956419 0 1.731752-.7753325 1.731752-1.7317522v-18.7633386c0-.9564204-.775332-1.7317522-1.731752-1.7317522z"/><path d="m142.492104 41.8754752h-12.263058c-.155305.0009448-.299221-.0813624-.37715-.2157033-.077928-.1343409-.077928-.3001314 0-.4344723.077929-.1343409.221845-.2166481.37715-.2157033h12.263058c.238065.001469.430283.1948704.430283.4329394 0 .2380691-.192218.4314705-.430283.4329395z"/><path d="m142.492104 44.9413376h-12.263058c-.239106 0-.43294-.1938336-.43294-.4329394 0-.2391059.193834-.4329394.43294-.4329394h12.263058c.239106 0 .43294.1938335.43294.4329394 0 .2391058-.193834.4329394-.43294.4329394z"/><path d="m142.492104 48.0070017h-12.263058c-.155188.0007721-.298922-.0815737-.376741-.2158425-.07782-.1342688-.07782-.2999196 0-.4341884.077819-.1342688.221553-.2166146.376741-.2158425h12.263058c.238065.0014662.430283.1948676.430283.4329367 0 .238069-.192218.4314704-.430283.4329367z"/><path d="m142.492104 51.0728723h-12.263058c-.155305.0009448-.299221-.0813624-.37715-.2157033-.077928-.134341-.077928-.3001314 0-.4344723.077929-.1343409.221845-.2166481.37715-.2157033h12.263058c.238065.001469.430283.1948704.430283.4329394 0 .2380691-.192218.4314705-.430283.4329395z"/><path d="m142.492104 54.1387401h-12.263058c-.155305.0009448-.299221-.0813623-.37715-.2157033-.077928-.1343409-.077928-.3001313 0-.4344723.077929-.1343409.221845-.2166481.37715-.2157033h12.263058c.238065.001469.430283.1948705.430283.4329395s-.192218.4314704-.430283.4329394z"/></g><path d="m51.7403824 22.2268159h-18.8613465c-1.0620297-.0012471-1.9226643-.8618805-1.9239129-1.9239101v-13.49634069c.0011558-1.06210251.8618105-1.92285081 1.9239129-1.92412203h18.8613465c1.0621777.00117239 1.9229509.86194433 1.9241248 1.92412203v13.49634069c-.0012728 1.0621023-.8620223 1.9227558-1.9241248 1.9239101zm-18.8613465-16.47849672c-.5841194.00072325-1.057429.47412643-1.0580368 1.05824593v13.49634069c.000626.5840776.4739591 1.0574096 1.0580368 1.058034h18.8613465c.5841185-.0006078 1.0575212-.4739157 1.0582459-1.058034v-13.49634069c-.0007065-.58416016-.4740857-1.05753934-1.0582459-1.05824593z" fill="#e6e6e6"/><path d="m48.4413511 10.9218111h-12.2630666c-.2380645-.001469-.4302828-.1948704-.4302828-.4329394 0-.2380691.1922183-.4314705.4302828-.4329395h12.2630666c.1553044-.0009448.299221.0813624.3771496.2157033.0779285.1343409.0779285.3001314 0 .4344723-.0779286.1343409-.2218452.2166481-.3771496.2157033z" fill="#387ed1"/><path d="m48.4413511 13.9876817h-12.2630666c-.2380645-.001469-.4302828-.1948704-.4302828-.4329395 0-.238069.1922183-.4314704.4302828-.4329394h12.2630666c.1553044-.0009448.299221.0813624.3771496.2157033.0779285.1343409.0779285.3001313 0 .4344723-.0779286.1343409-.2218452.2166481-.3771496.2157033z" fill="#387ed1"/><path d="m48.4413511 17.0533403h-12.2630666c-.2380645-.001469-.4302828-.1948704-.4302828-.4329394s.1922183-.4314705.4302828-.4329395h12.2630666c.1553044-.0009448.299221.0813624.3771496.2157033.0779285.134341.0779285.3001314 0 .4344723-.0779286.1343409-.2218452.2166481-.3771496.2157033z" fill="#387ed1"/><path d="m114.32545 29.705556-18.114988-5.2533566c-1.019657-.2969996-1.6065266-1.3632863-1.3119216-2.3836378l3.7590659-12.96227433c.2969307-1.01975201 1.3632667-1.60672713 2.3836947-1.31212812l18.114988 5.25335665c1.019818.2969705 1.606781 1.3634266 1.312065 2.3838985l-3.759065 12.9622771c-.297044 1.0197187-1.363444 1.6065758-2.383839 1.3118646zm-13.525316-21.07978304c-.561206-.16199655-1.14764.1608458-1.3109139.72168161l-3.7590605 12.96227713c-.1620793.5611396.1606891 1.1475768.7214806 1.3108566l18.1149848 5.2533539c.561175.162107 1.147673-.1606179 1.311061-.7214208l3.759066-12.9622744c.162022-.5612414-.160776-1.1477357-.721622-1.3111201z" fill="#e6e6e6"/><path d="m114.305682 17.929027-11.777795-3.4155655c-.229191-.0669569-.360905-.3068291-.294402-.5361523.066504-.2293232.306115-.3615114.535569-.2954615l11.77779 3.4155682c.229643.0665972.361818.3067475.29522.5363905-.066597.2296431-.306747.3618178-.53639.2952206z" fill="#387ed1"/><path d="m113.451763 20.873579-11.777798-3.4155682c-.148553-.0430804-.262839-.1621404-.299806-.3123313-.036968-.1501909.008998-.308695.120583-.4158055s.271837-.1465547.42039-.1034743l11.777803 3.4155655c.229192.0669569.360906.3068291.294402.5361523-.066503.2293231-.306115.3615113-.535569.2954615z" fill="#387ed1"/><path d="m112.597901 23.8179245-11.777798-3.4155654c-.229191-.066957-.360906-.3068292-.294402-.5361524.066504-.2293231.306115-.3615113.535569-.2954615l11.777798 3.4155682c.148553.0430804.262838.1621404.299806.3123313s-.008998.3086951-.120583.4158055c-.111586.1071105-.271837.1465547-.42039.1034743z" fill="#387ed1"/><path d="m42.411748 165.123906h189.993249v1h-189.993249z" fill="#e6e6e6"/><path d="m152.725434 163.849607h-30.895833l1.047348-13.614717h28.801136z" fill="#e6e6e6"/><path d="m120.258654 162.278829h34.561263v3.141937h-34.561263z" fill="#e6e6e6"/><path d="m196.450518 62.5224682h-118.0843007c-1.735241 0-3.1419317 1.4066908-3.1419317 3.1419317v72.0026251h124.3681704v-72.0026251c0-.8332913-.331023-1.6324536-.920248-2.2216801-.589226-.5892265-1.388387-.9202516-2.221679-.9202516z" fill="#3f3d56"/><path d="m75.2242856 137.667025v11.782248c0 .833292.3310241 1.632454.9202507 2.22168.5892265.589226 1.3883892.920249 2.221681.920249h118.0843007c1.735242 0 3.141938-1.406688 3.141938-3.141929v-11.782248z" fill="#e6e6e6"/><path d="m81.508149 69.068161h112.062269v62.838659h-112.062269z" fill="#e6e6e6"/><circle cx="137.539286" cy="144.998204" fill="#3f3d56" r="3.141934"/><circle cx="85.002289" cy="71.126066" fill="#fff" r="1"/><circle cx="87.265537" cy="71.126066" fill="#fff" r="1"/><circle cx="89.528783" cy="71.126066" fill="#fff" r="1"/><path d="m84.406028 73.152138h105.934647v52.774163h-105.934647z" fill="#fff"/><path d="m91.4478487 81.1793739c-.2067477 0-.3744971.1677494-.3744971.3744971v18.929917c0 .206747.1677504.374495.3744971.374495h21.8610043c.206747 0 .374497-.167748.374497-.374495v-18.929917c0-.2067477-.167749-.3744971-.374497-.3744971z" fill="#e6e6e6"/><path d="m126.548494 81.2402642c-.206793 0-.37463.1677042-.37463.374497v18.8690268c0 .206792.167839.374495.37463.374495h21.791372c.206701-.000255.374364-.167794.374364-.374495v-18.8690268c0-.2067019-.167662-.3742424-.374364-.374497z" fill="#e6e6e6"/><path d="m161.281025 81.0424688c-.206702.0002546-.374364.1677951-.374364.3744971v19.0668221c0 .206702.167662.374242.374364.374495h22.017957c.206702-.000253.374364-.167793.374364-.374495v-19.0668221c0-.206702-.167662-.3742425-.374364-.3744971z" fill="#e6e6e6"/><path d="m91.8475365 110.228529c-.4270485.0008-.772816.347216-.772816.774265s.3457675.773465.772816.774265h20.5536635c.427049-.0008.772816-.347216.772816-.774265s-.345767-.773465-.772816-.774265z" fill="#e6e6e6"/><path d="m91.8475365 113.911406c-.4270845.0008-.7728812.347245-.7728812.77433 0 .427086.3457967.773531.7728812.774331h9.2541605c.427084-.0008.772881-.347245.772881-.774331 0-.427085-.345797-.77353-.772881-.77433z" fill="#387ed1"/><path d="m127.325344 110.228529c-.427048.0008-.772816.347216-.772816.774265s.345768.773465.772816.774265h20.553667c.427048-.0008.772816-.347216.772816-.774265s-.345768-.773465-.772816-.774265z" fill="#e6e6e6"/><path d="m127.325344 113.911406c-.427084.0008-.772881.347245-.772881.77433 0 .427086.345797.773531.772881.774331h9.254297c.427084-.0008.772881-.347245.772881-.774331 0-.427085-.345797-.77353-.772881-.77433z" fill="#387ed1"/><path d="m161.916462 110.228529c-.427048.0008-.772816.347216-.772816.774265s.345768.773465.772816.774265h20.553664c.427049-.0008.772816-.347216.772816-.774265s-.345767-.773465-.772816-.774265z" fill="#e6e6e6"/><path d="m91.8475365 106.424928c-.4270485.0008-.772816.347216-.772816.774265 0 .42705.3457675.773465.772816.774265h20.5536635c.427049-.0008.772816-.347215.772816-.774265 0-.427049-.345767-.773465-.772816-.774265z" fill="#e6e6e6"/><path d="m127.325344 106.424928c-.427048.0008-.772816.347216-.772816.774265 0 .42705.345768.773465.772816.774265h20.553667c.427048-.0008.772816-.347215.772816-.774265 0-.427049-.345768-.773465-.772816-.774265z" fill="#e6e6e6"/><path d="m161.916462 106.424928c-.427048.0008-.772816.347216-.772816.774265 0 .42705.345768.773465.772816.774265h20.553664c.427049-.0008.772816-.347215.772816-.774265 0-.427049-.345767-.773465-.772816-.774265z" fill="#e6e6e6"/><path d="m161.916462 113.911406c-.427084.0008-.772881.347245-.772881.77433 0 .427086.345797.773531.772881.774331h9.254041c.427085-.0008.772881-.347245.772881-.774331 0-.427085-.345796-.77353-.772881-.77433z" fill="#387ed1"/></g><g transform="translate(168 8)"><path d="m27.4652136 40.9830267c2.128547 2.2084418 5.0919657 3.5780688 8.3694016 3.5780688 4.3567524 0 8.1578633-2.4190816 10.1820514-6.0102571 1.7590599.782644 3.7061539 1.2179665 5.7547862 1.2179665 7.8579489 0 14.2285472-6.3987707 14.2285472-14.2916803 0-7.8938456-6.3705983-14.2926163-14.2285472-14.2926163-.9589742 0-1.8963248.0954901-2.8026495.2780446-1.7825642-3.1661511-5.1794016-5.30531585-9.0782905-5.30531585-1.6321367 0-3.1758976.37540703-4.5504274 1.04290133-1.8070086-4.23245685-6.017094-7.20013838-10.9238461-7.20013838-5.1098291 0-9.4647009 3.21951319-11.1363248 7.73469552-.7305128-.15446923-1.4873504-.23498046-2.2639316-.23498046-6.08384616 0-11.0159829 4.96173884-11.0159829 11.08340114 0 4.1023282 2.2159829 7.6841419 5.50846153 9.6004966-.67786325 1.5531178-1.05487179 3.2672582-1.05487179 5.0693992 0 7.0400521 5.73974356 12.746988 12.81923076 12.746988 4.1564957 0 7.8504273-1.9678445 10.1923931-5.0169733" fill="#00a1e0" transform="matrix(1 0 0 -1 0 46)"/><g fill="#fff"><path d="m10.0162558 19.808215c-.04508319-.1041981.0163939-.1259438.0307386-.1440652.1352496-.0869828.2725485-.1495017.410872-.2192691.7336268-.3443069 1.4262689-.4448807 2.1506741-.4448807 1.4754506 0 2.3914595.6940501 2.3914595 1.8112353v.0217457c0 1.0329205-1.03384 1.4080338-2.0041537 1.6789489l-.1260281.0362429c-.7315775.2102083-1.3627425.3914225-1.3627425.8172757v.0226518c0 .3642404.3688626.6324373.9405997.6324373.6352635 0 1.3893827-.1866506 1.8750518-.4240411 0 0 .142422-.0815463.1946775.0407732.0286893.0652371.2745978.6505587.3002132.7139837.0276647.0688614-.021517.1196013-.0717233.1467834-.5543186.2980973-1.3207332.5019632-2.1137879.5019632l-.147545-.0009061c-1.3504472 0-2.2930961-.7212322-2.2930961-1.7550589v-.0217457c0-1.090003 1.0399877-1.4433706 2.0143999-1.6898218l.1567666-.0425853c.7100606-.1929931 1.3217578-.358804 1.3217578-.8009665v-.0217457c0-.4041075-.397552-.704923-1.0389631-.704923-.2489823 0-1.0430616.0045304-1.9006673.4838418-.1034864.0534582-.1639389.0924192-.2438592.1350045-.0420093.0235579-.147545.064331-.1936528-.0588946z" transform="matrix(1 0 0 -1 0 44)"/><path d="m29.0162558 19.808215c-.0450831-.1041981.0163938-.1259438.0307387-.1440652.1352496-.0869828.2725484-.1495017.4108718-.2192691.7336268-.3443069 1.4262689-.4448807 2.1506743-.4448807 1.4754504 0 2.3914594.6940501 2.3914594 1.8112353v.0217457c0 1.0329205-1.0338399 1.4080338-2.0041536 1.6789489l-.1260282.0362429c-.7315776.2102083-1.3627425.3914225-1.3627425.8172757v.0226518c0 .3642404.3688627.6324373.9405999.6324373.6352632 0 1.3893825-.1866506 1.8750515-.4240411 0 0 .1424221-.0815463.1946777.0407732.0286892.0652371.2745975.6505587.300213.7139837.0276647.0688614-.0215168.1196013-.0717232.1467834-.5543187.2980973-1.3207331.5019632-2.113788.5019632l-.147545-.0009061c-1.350447 0-2.2930961-.7212322-2.2930961-1.7550589v-.0217457c0-1.090003 1.0399877-1.4433706 2.0143999-1.6898218l.1567666-.0425853c.7100606-.1929931 1.3227824-.358804 1.3227824-.8009665v-.0217457c0-.4041075-.3985763-.704923-1.0399877-.704923-.2489821 0-1.0430615.0045304-1.9006671.4838418-.1034865.0534582-.1649637.090607-.2428345.1350045-.0266401.0154032-.1516437.0579885-.1946776-.0588946z" transform="matrix(1 0 0 -1 0 44)"/><path d="m42.8255834 21.9945289c0-.6355623-.1107137-1.1361702-.3287345-1.4899696-.2154657-.350152-.5416454-.5206687-.9964231-.5206687-.4556293 0-.7801055.1696048-.9921649.5206687-.2146141.3528875-.3236246.8544073-.3236246 1.4899696 0 .6346504.1090105 1.1343465.3236246 1.4844985.2120594.3465045.5365356.5151975.9921649.5151975.4547777 0 .7809574-.168693.9972747-.5151975.2171692-.350152.3278829-.8498481.3278829-1.4844985m1.0236756 1.1781155c-.100494.3638298-.2571963.6848024-.4658491.9519757-.2086527.2680851-.4726623.4832826-.7860671.6401215-.3125531.1559271-.6821666.2352584-1.096917.2352584-.415602 0-.7852155-.0793313-1.0977686-.2352584-.3134048-.1568389-.5774144-.3720364-.7869187-.6401215-.2078012-.2680851-.3645035-.5890578-.4658491-.9519757-.0996423-.3620061-.1498894-.7577508-.1498894-1.1781155 0-.4203648.0502471-.8170213.1498894-1.1781155.1013456-.362918.2571963-.6838906.4667007-.9519757.2086527-.2680851.4735139-.4823708.7860671-.6346505.3134048-.1522796.6821666-.2297872 1.0977686-.2297872.4147504 0 .7835122.0775076 1.096917.2297872.3125532.1522797.5774144.3665654.7860671.6346505.2086528.2671732.3653551.5881459.4658491.9519757.1004939.362006.150741.7586626.150741 1.1781155s-.0502471.8161094-.150741 1.1781155" transform="matrix(1 0 0 -1 0 44)"/><path d="m53.6912942 20.1502355c-.0405383.1066383-.1550591.066535-.1550591.066535-.1773549-.0610664-.3658579-.1175756-.5665224-.1458302-.203705-.0282546-.4276791-.0428376-.6678685-.0428376-.5898322 0-1.0580494.1576789-1.3935039.4693908-.3364677.311712-.524971.8157376-.5229438 1.4974936.0020268.6206896.1682337 1.0873462.4672037 1.4428072.2969429.3536382.748945.5350145 1.351952.5350145.5026751 0 .8857619-.051952 1.2870909-.1658819 0 0 .0962784-.037369.1418841.0756494.106413.2661401.1854627.4566308.29897.7492025.0324305.0829409-.0466191.118487-.0749959.1285129-.1580994.0555977-.5310516.1458301-.8127929.1841105-.2634989.0364576-.5715899.0555978-.9141385.0555978-.511796 0-.9678519-.0783837-1.3580328-.2351511-.3891678-.155856-.7195549-.3709555-.9810269-.6389185-.2614718-.2679629-.4601094-.5887893-.5928723-.9515418-.1317495-.3618411-.1986379-.7592283-.1986379-1.1794015 0-.9087043.2726201-1.6433237.810766-2.1810725.5391594-.5395716 1.3489117-.8139146 2.4049342-.8139146.6242899 0 1.2647948.1139298 1.7249045.2770773 0 0 .0881709.0382804.0496595.1303357z" transform="matrix(1 0 0 -1 0 44)"/><path d="m55.2631122 22.60401c.050631.3528329.1456753.6464045.292239.8752445.2211779.3473627.5587184.5379107 1.033052.5379107.4743333 0 .7878907-.1914597 1.0126215-.5379107.1492285-.22884.2140719-.5351755.2398315-.8752445zm3.594807.7758678c-.090603.3510095-.3153338.7056659-.4627858.8679508-.2327253.2571031-.4601212.4367106-.6857402.536999-.294904.1294633-.6484335.2151724-1.0357167.2151724-.4512384 0-.8607286-.0775037-1.1929394-.2379652-.3330993-.1604615-.6129026-.3792726-.8323039-.6518748-.2194014-.2716905-.3846188-.5953487-.489434-.962769-.1057035-.365597-.1589992-.7640156-.1589992-1.1843153 0-.4275934.0550722-.826012.1643289-1.1843153.1101447-.3610384.2860213-.6792262.5240761-.9427113.2371667-.2653085.5427297-.4731791.9086948-.6181414.3633001-.1440507.8047676-.2188112 1.3119667-.2179077 1.0437112.0036551 1.5935468.2425239 1.8200544.3710755.0399718.0227928.0781674.0629082.0302009.177784l-.2362783.6792262c-.0355306.1012002-.1359046.0638199-.1359046.0638199-.2584849-.098465-.6262265-.2753373-1.4834018-.2735139-.5604952.0009117-.976203.1704904-1.2364644.4357989-.2673677.2716905-.3979427.6710208-.4210376 1.2344595l3.6143489-.0036469s.0950442.0018234.1048152.0966416c.0035532.0401154.1243571.7621921-.10748 1.598233z" transform="matrix(1 0 0 -1 0 43.999992)"/><path d="m25.2631427 22.60401c.0515205.3528329.1456789.6464045.292246.8752445.2211832.3473627.5587319.5379107 1.0330767.5379107.4743447 0 .7879096-.1914597 1.0135341-.5379107.1483438-.22884.2131888-.5351755.238949-.8752445zm3.594005.7758678c-.0906052.3510095-.3144532.7056659-.4619087.8679508-.2327309.2571031-.4601322.4367106-.6857567.536999-.2949111.1294633-.6484487.2151724-1.0357416.2151724-.4503609 0-.860749-.0775037-1.192968-.2379652-.3331072-.1604615-.6129173-.3792726-.8323239-.6518748-.2194067-.2716905-.3846279-.5953487-.4894456-.962769-.1048178-.365597-.1590032-.7640156-.1590032-1.1843153 0-.4275934.0550737-.826012.1643329-1.1843153.1101475-.3610384.2860281-.6792262.5240887-.9427113.2371724-.2653085.5427428-.4731791.9087166-.6181414.3633089-.1440507.8047872-.2188112 1.3119985-.2179077 1.0437359.0036551 1.5935848.2425239 1.8200978.3710755.0399728.0227928.0781693.0629082.0302018.177784l-.2353959.6792262c-.0364197.1012002-.1367961.0638199-.1367961.0638199-.2584911-.098465-.6253533-.2753373-1.4843257-.2735139-.5596201.0009117-.975338.1704904-1.2356058.4357989-.2673741.2716905-.3979521.6710208-.4210476 1.2344595l3.6144356-.0036469s.0950468.0018234.1048177.0966416c.0035533.0401154.1243601.7621921-.1083708 1.598233z" transform="matrix(1 0 0 -1 0 43.999992)"/><path d="m16.5915549 20.17322c-.151079.1156824-.171983.1448307-.2232928.2195233-.0760146.1138606-.114972.2759982-.114972.4818582 0 .3260968.1121215.5601943.3449161.7177774-.0028506-.0009109.3325637.27782 1.1212148.2678003.5539561-.0072871 1.0490009-.0856233 1.0490009-.0856233v-1.6851374h.0009502s-.4912441-.1011082-1.0442501-.1329892c-.7867507-.0455442-1.1364177.2177016-1.1335671.2167907m1.5383447 2.6042204c-.15678.0109306-.360119.0173068-.6033656.0173068-.3316135 0-.6518249-.0400789-.9520824-.1175041-.3021579-.0774253-.5739099-.198573-.8076547-.3588888-.234695-.1612266-.4237812-.3670867-.5606074-.6112039s-.2061895-.5319568-.2061895-.8544102c0-.3279186.0589113-.6130256.1767339-.8462122.1178225-.2340975.2879051-.4290269.5045466-.5793229.2147412-.150296.4798419-.2605131.7877009-.3270077.3031081-.0664947.647074-.1001974 1.0233461-.1001974.3962259 0 .7915016.0309701 1.1744249.0938212.3791227.0619401.8447119.1521178.9739366.1803552.1282746.0291483.2708019.0664946.2708019.0664946.0959684.0227722.0883669.1211477.0883669.1211477l-.0019003 3.3894034c0 .7432822-.2071397 1.2943677-.6147678 1.6359496-.4057277.340671-1.0033922.5128283-1.7758902.5128283-.2898055 0-.7563449-.0382572-1.0356984-.0919994 0 0-.8447118-.1566722-1.1924785-.4171854 0 0-.0760145-.0455442-.0342065-.1475633l.2736524-.7050251c.0342066-.0910885.1263742-.0601184.1263742-.0601184s.0294556.0109306.0636622.0300592c.7439925.388037 1.6846727.3761955 1.6846727.3761955.4180801 0 .7392417-.0801579.9558832-.2395627.2109404-.1548505.318311-.388948.318311-.8826477v-.1566722c-.3325638.0455442-.6375722.0719599-.6375722.0719599" transform="matrix(1 0 0 -1 0 44)"/><path d="m48.9912921 23.7466755c.0329334.0865152-.0361201.127892-.0648039.1372958-.0733031.0253903-.44088.0940382-.7245307.1100247-.5428667.0291519-.8445774-.051721-1.1144171-.1589246-.2677153-.1072035-.5651764-.2802339-.7309048-.4767737v.4654891c0 .0648864-.0520557.1166074-.1242963.1166074h-1.108043c-.0722408 0-.1242963-.051721-.1242963-.1166074v-5.7071794c0-.063946.0594922-.1166074.1317327-.1166074h1.1356644c.0722408 0 .1306706.0526614.1306706.1166074v2.8512388c0 .3827355.0478062.7645307.1434187 1.0043281.0934879.2369763.2209712.4269335.3782009.563289.1582918.135415.3378309.2303936.5343677.2839954.2007865.0545422.42282.0724094.5800494.0724094.2262832 0 .4748758-.051721.4748758-.051721.0828642-.0084635.129608.0366749.1572294.103442.0743652.1749111.284713.698704.3250825.8030864" transform="matrix(1 0 0 -1 0 42)"/><path d="m39.9187024 26.8732676c-.1281018.036734-.2443788.0615294-.3961302.0881615-.1537222.025714-.3370062.0385709-.5449252.0385709-.7252534 0-1.2967847-.1910169-1.6978418-.5675406-.3990863-.3746868-.6700709-.9449824-.806056-1.6952746l-.04927-.2525463h-.9105082s-.1103644.0036734-.134014-.1083654l-.1487953-.7778427c-.0108392-.073468.0236496-.1203039.1300728-.1203039h.8858732l-.8986834-4.6762397c-.0699634-.3765237-.150766-.6860077-.2404373-.9211054-.0877005-.2314242-.1734302-.4049924-.2798532-.5317248-.1024814-.1212222-.1990506-.2112206-.3665683-.2635665-.1379556-.0431625-.2975903-.0633662-.4720057-.0633662-.0965692 0-.2256563.0146936-.3212401.0330606-.0945982.0174487-.1448535.036734-.2167875.0652029 0 0-.1034668.036734-.1448537-.0596928-.032518-.0798965-.2690138-.6850893-.2975903-.7594757-.0275911-.0743864.0118248-.1322424.0620801-.1496911.1182478-.0385707.2059483-.0642845.3665684-.1001002.2226999-.0486725.4109111-.0514276.5872973-.0514276.3685391 0 .7055453.0486726.9844131.1423443.2798532.0945901.524232.2589748.7410197.4812156.2335394.2406078.3803639.4922357.5202903.8366171.1389412.3397896.2581746.7622307.3527728 1.2544665l.9036103 4.763483h1.3204339s.1113501-.0036734.1340144.1092837l.1497806.7769244c.0098538.0743863-.0236496.1203039-.1310582.1203039h-1.2820034c.0068979.0266321.0650363.4472365.2118608.8430455.0630655.1680582.1813133.3048923.2808386.398564.0985399.0918351.2118605.1570379.3360208.1946902.1271164.0385709.2719699.0569378.4306193.0569378.1202185 0 .2394516-.0128569.3291229-.0303054.1241603-.0247955.1724449-.0376526.2049629-.0468359.1310582-.036734.1487952-.0009183.1744156.0578561l.306459.784271c.0315326.0844882-.0463139.1203039-.073905.1304058" transform="matrix(1 0 0 -1 0 43)"/><path d="m23 16.1101904c0-.0609183-.0746951-.1101904-.1783537-.1101904h-1.644817c-.1036586 0-.1768293.0492721-.1768293.1101904v7.7796192c0 .0609183.0731707.1101904.1768293.1101904h1.644817c.1036586 0 .1783537-.0492721.1783537-.1101904z" transform="matrix(1 0 0 -1 0 40)"/></g></g></g></svg>